<svg xmlns="http://www.w3.org/2000/svg" width="26" height="27" viewBox="0 0 26 27" fill="none">
<path d="M18 6C18 2.71875 15.2812 0 12 0C8.67188 0 6 2.71875 6 6L1.5 6L1.5 20.25C1.5 22.3594 3.14062 24 5.25 24L18.75 24C20.8125 24 22.5 22.3594 22.5 20.25L22.5 6L18 6ZM12 1.5C14.4375 1.5 16.5 3.5625 16.5 6L7.5 6C7.5 3.5625 9.51562 1.5 12 1.5ZM21 20.25C21 21.5156 19.9687 22.5 18.75 22.5L5.25 22.5C3.98437 22.5 3 21.5156 3 20.25L3 7.5L6 7.5L6 9.75C6 10.1719 6.32812 10.5 6.75 10.5C7.125 10.5 7.5 10.1719 7.5 9.75L7.5 7.5L16.5 7.5V9.75C16.5 10.1719 16.8281 10.5 17.25 10.5C17.625 10.5 18 10.1719 18 9.75V7.5L21 7.5L21 20.25Z" fill="white"/>
</svg>