<svg width="38" height="15" viewBox="0 0 38 15" fill="none" xmlns="http://www.w3.org/2000/svg">
<path d="M4.392 11.98H9.828V14.5H0.9V12.16L6.3 4.384H0.9V1.864H9.828V4.204L4.392 11.98ZM21.3067 9.316C21.3067 9.604 21.2887 9.904 21.2527 10.216H14.2867C14.3347 10.84 14.5327 11.32 14.8807 11.656C15.2407 11.98 15.6787 12.142 16.1947 12.142C16.9627 12.142 17.4967 11.818 17.7967 11.17H21.0727C20.9047 11.83 20.5987 12.424 20.1547 12.952C19.7227 13.48 19.1767 13.894 18.5167 14.194C17.8567 14.494 17.1187 14.644 16.3027 14.644C15.3187 14.644 14.4427 14.434 13.6747 14.014C12.9067 13.594 12.3067 12.994 11.8747 12.214C11.4427 11.434 11.2267 10.522 11.2267 9.478C11.2267 8.434 11.4367 7.522 11.8567 6.742C12.2887 5.962 12.8887 5.362 13.6567 4.942C14.4247 4.522 15.3067 4.312 16.3027 4.312C17.2747 4.312 18.1387 4.516 18.8947 4.924C19.6507 5.332 20.2387 5.914 20.6587 6.67C21.0907 7.426 21.3067 8.308 21.3067 9.316ZM18.1567 8.506C18.1567 7.978 17.9767 7.558 17.6167 7.246C17.2567 6.934 16.8067 6.778 16.2667 6.778C15.7507 6.778 15.3127 6.928 14.9527 7.228C14.6047 7.528 14.3887 7.954 14.3047 8.506H18.1567ZM26.0085 1.18V14.5H22.9305V1.18H26.0085ZM33.279 7.012H31.623V14.5H28.545V7.012H27.429V4.456H28.545V4.168C28.545 2.932 28.899 1.996 29.607 1.36C30.315 0.711999 31.353 0.387999 32.721 0.387999C32.949 0.387999 33.117 0.393999 33.225 0.405999V3.016C32.637 2.98 32.223 3.064 31.983 3.268C31.743 3.472 31.623 3.838 31.623 4.366V4.456H33.279V7.012Z" fill="white"/>
<path d="M36.1654 14.644C35.6254 14.644 35.1814 14.488 34.8334 14.176C34.4974 13.852 34.3294 13.456 34.3294 12.988C34.3294 12.508 34.4974 12.106 34.8334 11.782C35.1814 11.458 35.6254 11.296 36.1654 11.296C36.6934 11.296 37.1254 11.458 37.4614 11.782C37.8094 12.106 37.9834 12.508 37.9834 12.988C37.9834 13.456 37.8094 13.852 37.4614 14.176C37.1254 14.488 36.6934 14.644 36.1654 14.644Z" fill="#FE0300"/>
</svg>
